# xmcd
# 
# Track frame offsets:
#     150
#     13454
#     25800
#     37394
#     47045
#     59789
#     76023
#     86363
#     99846
#     112091
#     122540
#     138606
#     144929
#     158537
#     168722
#     186957
#     200428
#     213210
#     225492
#     238388
# 
# Disc length: 3312
# 
# Revision: 6
# Processed by: cddbd v1.5.2PL0 Copyright (c) Steve Scherf et al.
# Submitted via: BonkEnc v1.0.15
# 
DISCID=180cee14
DTITLE=Various Artist - Country Legends 1
DYEAR=0
DGENRE=Country
TTITLE0=Don Williams - Where Do I Go From Here ?
TTITLE1=Anne Murray - All Time
TTITLE2=Johnny Cash - These Hands
TTITLE3=Charley Pride - Kiss An Angel Good Morning
TTITLE4=Kenny Rodgers - Reuben James
TTITLE5=Johnny Cash - A Boy Named Sue
TTITLE6=Loretta Lynn - You're Looking At Country
TTITLE7=Georges Jones - Almost Persuaded
TTITLE8=Willie Nelson - Seven Spanish Angels
TTITLE9=Wanda Jackson - It's Only Make Believe
TTITLE10=Anne Murray - Both Sides Now
TTITLE11=Brenda Lee - I'll Fly Away
TTITLE12=Kenny Rodgers - Ruby Don't Take Your Love To Town
TTITLE13=Merle Haggard - Mama Tried
TTITLE14=Bobby Bare - The Jogger
TTITLE15=Billie Jo Spears - Fever
TTITLE16=Charley Pride - Chrystal Chandeliers
TTITLE17=Loretta Lynn - Me And Bobby Mc Gee
TTITLE18=Willie Nelson - To All The Girls I've Loved Before
TTITLE19=Jim Reeves - Anne Marie
EXTD=Eigentümer Familie Oriwol
EXTT0=
EXTT1=
EXTT2=
EXTT3=
EXTT4=
EXTT5=
EXTT6=
EXTT7=
EXTT8=
EXTT9=
EXTT10=
EXTT11=
EXTT12=
EXTT13=
EXTT14=
EXTT15=
EXTT16=
EXTT17=
EXTT18=
EXTT19=
PLAYORDER=
